<svg id="Layer_1" enable-background="new 0 0 512 512" viewBox="0 0 512 512" xmlns="http://www.w3.org/2000/svg"><path clip-rule="evenodd" d="m379.43 237.36h68.26v78.58h-68.26zm-160.02-81.81h263.68v44.45h-263.68zm-150.07 35.35 25.17-6.75 13.32 49.75-25.17 6.75c-7.77 2.1-15.82-2.58-17.92-10.35l-5.74-21.49c-2.07-7.76 2.58-15.81 10.34-17.91zm25.18-6.75 40.54-43.31 14.76 55.16 14.8 55.13-56.78-17.23zm115.93-119.68v10.29c0 15.28-12.5 27.75-27.78 27.75h-74.01c-15.28 0-27.75-12.47-27.75-27.75v-10.29zm47.79 321.65v17.86c0 26.56-21.71 48.25-48.25 48.25h-128.66c-26.53 0-48.25-21.69-48.25-48.25v-17.86z" fill="#d1e7fe" fill-rule="evenodd"/><path d="m379.43 229.36h68.26c4.42 0 7.99 3.57 7.99 7.99v78.58c0 4.42-3.57 7.99-7.99 7.99h-68.26c-4.42 0-7.99-3.57-7.99-7.99v-78.58c-.01-4.41 3.56-7.99 7.99-7.99zm60.26 15.99h-52.27v62.59h52.27zm-185.39 73.42c-4.39 0-7.99-3.57-7.99-7.99s3.6-7.99 7.99-7.99h85.83c4.42 0 7.99 3.57 7.99 7.99s-3.57 7.99-7.99 7.99zm0-36.2c-4.39 0-7.99-3.57-7.99-7.99s3.6-7.99 7.99-7.99h85.83c4.42 0 7.99 3.57 7.99 7.99s-3.57 7.99-7.99 7.99zm0-36.17c-4.39 0-7.99-3.6-7.99-8.02s3.6-7.99 7.99-7.99h85.83c4.42 0 7.99 3.57 7.99 7.99s-3.57 8.02-7.99 8.02zm47.46-60.89c-4.42 0-7.99-3.57-7.99-7.99s3.57-8.02 7.99-8.02h.96c4.42 0 7.99 3.6 7.99 8.02s-3.57 7.99-7.99 7.99zm-26.25 0c-4.42 0-7.99-3.57-7.99-7.99s3.57-8.02 7.99-8.02h.96c4.42 0 8.02 3.6 8.02 8.02s-3.6 7.99-8.02 7.99zm-26.22 0c-4.42 0-8.02-3.57-8.02-7.99s3.6-8.02 8.02-8.02h.96c4.42 0 7.99 3.6 7.99 8.02s-3.57 7.99-7.99 7.99zm225.8 22.48h-247.66v136.01h247.66zm-247.66-15.99h247.66v-28.46h-247.66zm-8.02-44.47h30.84v-34.81c0-19.08-13.55-35.4-31.8-39.34v1.39c0 19.67-16.07 35.75-35.77 35.75h-74.01c-19.7 0-35.77-16.07-35.77-35.75v-1.39c-18.25 3.94-31.78 20.27-31.78 39.34v265.41h209.14v-18.11h-30.84c-4.39 0-7.99-3.6-7.99-8.02v-196.45c-.01-4.42 3.59-8.02 7.98-8.02zm46.83 0h216.85c4.42 0 8.02 3.6 8.02 8.02v196.44c0 4.42-3.6 8.02-8.02 8.02h-216.85v43.97c0 30.95-25.28 56.27-56.24 56.27h-128.67c-30.95 0-56.24-25.31-56.24-56.27v-291.26c0-30.95 25.31-56.24 56.24-56.24h129.12c30.33 0 55.79 25.31 55.79 56.24zm-177.93 83.34 9.75-2.61-9.18-34.33-17.46 4.71c-3.51.94-5.64 4.56-4.71 8.11l5.78 21.51c.94 3.52 4.56 5.61 8.11 4.68zm11.85 13.38 6.41 23.95c1.13 4.28-1.39 8.65-5.64 9.78-4.28 1.16-8.65-1.39-9.78-5.64l-6.43-23.95c-12.02 3.2-24.46-4.02-27.67-16.02l-5.75-21.49c-3.23-11.99 3.97-24.46 15.99-27.69l23.02-6.18 38.95-41.61c4.31-4.59 11.91-2.58 13.49 3.4l.03-.03 29.57 110.32c1.56 5.81-3.8 11.85-10.6 9.5l-53.97-16.38zm88.69-49.38c-4.25 1.13-8.65-1.42-9.78-5.67s1.39-8.65 5.64-9.78l10.57-2.83c4.25-1.13 8.65 1.39 9.78 5.67 1.13 4.25-1.39 8.62-5.64 9.78zm-9.49-26.45c-2.35 3.71-7.28 4.85-11 2.49-3.74-2.35-4.85-7.29-2.49-11l4.88-7.71c2.35-3.74 7.26-4.85 11-2.52 3.71 2.35 4.85 7.29 2.49 11zm2.94 52.75c-3.91-2.01-5.41-6.83-3.37-10.74 2.04-3.88 6.83-5.41 10.74-3.37l8.08 4.25c3.91 2.04 5.41 6.86 3.37 10.74-2.01 3.91-6.83 5.41-10.74 3.37zm-51.25-64.4-27.67 29.57 11.03 41.24 38.75 11.76zm71.41-82.01v-2.3h-113.56v2.3c0 10.86 8.9 19.76 19.76 19.76h74.01c10.86 0 19.79-8.9 19.79-19.76zm47.79 319.35h-209.14v9.86c0 22.14 18.11 40.25 40.22 40.25h128.67c22.11 0 40.25-18.11 40.25-40.25z" fill="#2c57fe"/></svg>