<?xml version="1.0" encoding="UTF-8"?>
<svg width="500" height="500" viewBox="0 0 500 500" fill="none" xmlns="http://www.w3.org/2000/svg">
    <path d="M375 83.3334H125C110.833 83.3334 100 94.1667 100 108.333V391.667C100 405.833 110.833 416.667 125 416.667H375C389.167 416.667 400 405.833 400 391.667V108.333C400 94.1667 389.167 83.3334 375 83.3334ZM375 391.667H125V108.333H375V391.667Z" fill="#7F6DF2"/>
    <path d="M170.833 225C186.458 225 200 211.458 200 195.833C200 180.208 186.458 166.667 170.833 166.667C155.208 166.667 141.667 180.208 141.667 195.833C141.667 211.458 155.208 225 170.833 225Z" fill="#7F6DF2"/>
    <path d="M145.833 333.333L195.833 283.333L220.833 308.333L270.833 258.333L354.167 341.667V366.667H145.833V333.333Z" fill="#7F6DF2"/>
</svg>
