<?xml version="1.0" encoding="UTF-8"?>
<svg xmlns="http://www.w3.org/2000/svg" viewBox="0 0 64 64" width="512" height="512"><g id="line_copy" data-name="line copy"><rect x="3" y="3" width="50" height="58" rx="2" fill="#7dd9ef"/><path d="M53,52v7a2,2,0,0,1-2,2H5a2,2,0,0,1-2-2V5A2,2,0,0,1,5,3H17V50a2,2,0,0,0,2,2Z" fill="#59c9ef"/><rect x="10" y="14" width="36" height="18" fill="#f75c68"/><path d="M46,24v8H10V14h8v2a8.09,8.09,0,0,0,.58,3A8,8,0,0,0,21,22.24a8,8,0,0,0,2,1.18A7.91,7.91,0,0,0,26,24Z" fill="#ff1f1f"/><path d="M37,47v6a8,8,0,0,0,8,8h8a8,8,0,0,0,8-8V37a3,3,0,0,0-6,0v0a3,3,0,0,0-6,0v0a3,3,0,0,0-6,0V26a3,3,0,0,0-6,0Z" fill="#ffeecf"/><path d="M61,53.25A8,8,0,0,1,53,61H45a8,8,0,0,1-8-8V26a3,3,0,0,1,3-3V47a8,8,0,0,0,8,8h8A8,8,0,0,0,61,53.25Z" fill="#ffc688"/><path d="M36.07,60H5a1,1,0,0,1-1-1V5A1,1,0,0,1,5,4H51a1,1,0,0,1,1,1V30.09a1,1,0,1,0,2,0V5a3,3,0,0,0-3-3H5A3,3,0,0,0,2,5V59a3,3,0,0,0,3,3H36.07a1,1,0,0,0,0-2Z"/><path d="M37,14a1,1,0,0,0-1-1H34.66a1,1,0,0,0,0,2H36A1,1,0,0,0,37,14Z"/><path d="M46.34,14a1,1,0,0,0-1-1H44a1,1,0,0,0,0,2h1.34A1,1,0,0,0,46.34,14Z"/><path d="M34,32a1,1,0,0,0-1-1H11V15H27.54a1,1,0,0,0,0-2H10a1,1,0,0,0-1,1V32a1,1,0,0,0,1,1H33A1,1,0,0,0,34,32Z"/><path d="M60.83,34.17a4,4,0,0,0-5.83.19l-.17-.19a4,4,0,0,0-5.83.19l-.17-.19A4,4,0,0,0,44,33.54V26a4,4,0,0,0-8,0V53a9,9,0,0,0,9,9h8a9,9,0,0,0,9-9V37A4,4,0,0,0,60.83,34.17ZM60,53a7,7,0,0,1-7,7H45a7,7,0,0,1-7-7V26a2,2,0,0,1,2-2,2,2,0,0,1,2,2V47a1,1,0,0,0,2,0V37a2,2,0,0,1,2-2,2,2,0,0,1,2,2V47a1,1,0,0,0,2,0V37a2,2,0,0,1,2-2,2,2,0,0,1,2,2V47a1,1,0,0,0,2,0V37a2,2,0,0,1,2-2,2,2,0,0,1,2,2Z"/><path d="M39,12v6a1,1,0,0,0,2,0V12a1,1,0,0,0-2,0Z"/><path d="M45,21.05a1,1,0,0,0,.71-.29l4.05-4.05a1,1,0,0,0-1.42-1.42l-4,4.05a1,1,0,0,0,0,1.42A1,1,0,0,0,45,21.05Z"/><path d="M35.05,21.05a1,1,0,0,0,.71-.29,1,1,0,0,0,0-1.42l-4-4.05a1,1,0,0,0-1.42,1.42l4.05,4.05A1,1,0,0,0,35.05,21.05Z"/><path d="M20,27a1,1,0,0,0,1-1V21.5A2.42,2.42,0,0,0,18.67,19H17.33A2.42,2.42,0,0,0,15,21.5V26a1,1,0,0,0,2,0v-.5h2V26A1,1,0,0,0,20,27Zm-3-3.5v-2c0-.29.18-.5.33-.5h1.34c.15,0,.33.21.33.5v2Z"/><path d="M26.67,19H24a1,1,0,0,0-1,1v6a1,1,0,0,0,1,1h2.67A2.42,2.42,0,0,0,29,24.5v-3A2.42,2.42,0,0,0,26.67,19ZM27,24.5c0,.29-.18.5-.33.5H25V21h1.67c.15,0,.33.21.33.5Z"/><path d="M34,8a1,1,0,0,0,0-2H16a1,1,0,0,0,0,2Z"/><circle cx="8" cy="7" r="1"/><circle cx="12" cy="7" r="1"/><path d="M26,40H14a1,1,0,0,0,0,2H26a1,1,0,0,0,0-2Z"/><path d="M26,44H14a1,1,0,0,0,0,2H26a1,1,0,0,0,0-2Z"/><path d="M26,48H14a1,1,0,0,0,0,2H26a1,1,0,0,0,0-2Z"/></g></svg>
