<svg id="Layer_1" viewBox="0 0 256 256" xmlns="http://www.w3.org/2000/svg" data-name="Layer 1"><g><path d="m218.3 106.76c0 10.41 10.5 22.36 7.45 31.76-3.16 9.73-18.79 13.2-24.69 21.31-2.17 2.98-3.35 6.99-4.37 11.17-1.79 7.3-3.08 15.11-8.29 18.9-8.11 5.9-22.74-.39-32.49 2.77-5.08 1.65-9.78 6.43-14.66 10.48-4.17 3.45-8.48 6.37-13.26 6.37-5.07 0-9.6-3.28-14-6.99-4.62-3.91-9.1-8.29-13.91-9.86-9.73-3.16-24.38 3.12-32.49-2.77-5.66-4.13-6.7-13-8.77-20.8-.92-3.48-2.06-6.74-3.89-9.26-5.9-8.11-21.53-11.58-24.69-21.31-3.05-9.4 7.45-21.35 7.45-31.76s-10.5-22.36-7.45-31.76c3.16-9.73 18.79-13.21 24.69-21.31 5.96-8.19 4.47-24.1 12.66-30.06 8.11-5.9 22.74.39 32.49-2.77 9.4-3.05 17.5-16.85 27.91-16.85s18.52 13.8 27.91 16.85c9.73 3.16 24.38-3.12 32.49 2.77 8.19 5.96 6.7 21.87 12.66 30.06 5.9 8.1 21.53 11.58 24.69 21.31 3.05 9.4-7.45 21.35-7.45 31.76z" fill="#f45a56"/><path d="m114 202.52-19.61 49.25-23.68-26.55-35.44 3.01 23.55-59.14c2.07 7.8 3.11 16.67 8.77 20.8 8.11 5.9 22.75-.39 32.49 2.77 4.81 1.57 9.29 5.95 13.91 9.86z" fill="#4d92f7"/><path d="m220.72 226.85-35.51-2.04-22.94 27.19-21.02-48.85c4.88-4.05 9.58-8.83 14.66-10.48 9.74-3.16 24.38 3.12 32.49-2.77 5.21-3.79 6.5-11.6 8.29-18.9l24.03 55.86z" fill="#4d92f7"/><path d="m134.78 59.93 9.23 18.71c1.1 2.23 3.23 3.78 5.69 4.14l20.65 3c6.2.9 8.68 8.52 4.19 12.9l-14.94 14.57c-1.78 1.74-2.6 4.24-2.17 6.69l3.53 20.57c1.06 6.18-5.42 10.89-10.97 7.97l-18.47-9.71c-2.2-1.16-4.83-1.16-7.04 0l-18.47 9.71c-5.55 2.92-12.03-1.79-10.97-7.97l3.53-20.57c.42-2.45-.39-4.96-2.17-6.69l-14.94-14.57c-4.49-4.37-2.01-12 4.19-12.9l20.65-3c2.46-.36 4.59-1.9 5.69-4.14l9.23-18.71c2.77-5.62 10.79-5.62 13.56 0z" fill="#f4bd51"/></g><g fill="#3f2706"><path d="m226.06 119.54c-1.85-4.42-3.76-8.99-3.76-12.78s1.91-8.36 3.76-12.79c2.78-6.66 5.66-13.55 3.5-20.22-2.25-6.94-8.79-10.89-15.11-14.71-4.15-2.51-8.07-4.87-10.15-7.72-2.11-2.91-3.17-7.41-4.3-12.18-1.68-7.14-3.42-14.52-9.25-18.77-5.76-4.19-13.27-3.57-20.54-2.98-4.71.38-9.57.78-13.07-.35-3.26-1.06-6.67-4.01-10.27-7.14-5.36-4.64-11.43-9.91-18.87-9.91s-13.51 5.26-18.87 9.91c-3.61 3.13-7.02 6.08-10.27 7.14-3.5 1.13-8.37.74-13.08.36-7.26-.59-14.77-1.2-20.53 2.99-5.83 4.24-7.56 11.62-9.25 18.76-1.12 4.77-2.18 9.27-4.3 12.18-.93 1.27-2.34 2.58-4.32 4-1.8 1.29-2.21 3.78-.93 5.58s3.78 2.21 5.58.93c2.73-1.95 4.68-3.8 6.14-5.8 3.06-4.21 4.36-9.72 5.61-15.05 1.41-5.98 2.74-11.63 6.16-14.13 3.37-2.44 9.1-1.98 15.18-1.48 5.49.45 11.17.91 16.19-.72 4.8-1.56 8.99-5.19 13.04-8.7 4.72-4.09 9.18-7.95 13.63-7.95s8.91 3.86 13.63 7.95c4.05 3.51 8.24 7.14 13.04 8.7 5.02 1.63 10.7 1.17 16.19.72 6.08-.49 11.82-.96 15.18 1.48 3.43 2.49 4.76 8.15 6.17 14.13 1.25 5.33 2.55 10.84 5.62 15.05 3.03 4.15 7.83 7.06 12.48 9.86 5.3 3.2 10.31 6.22 11.64 10.33 1.25 3.84-.95 9.1-3.27 14.66-2.15 5.15-4.37 10.48-4.37 15.87s2.22 10.72 4.38 15.87c2.32 5.56 4.52 10.81 3.27 14.66-1.33 4.1-6.33 7.12-11.63 10.32-4.65 2.81-9.46 5.71-12.49 9.87-2.68 3.68-4 8.41-5.02 12.56-.21.84-.4 1.68-.6 2.52-1.41 5.97-2.73 11.61-6.16 14.09-3.37 2.45-9.1 1.98-15.18 1.48-5.49-.45-11.17-.91-16.19.72-4.82 1.57-9.02 5.22-13.09 8.75-.96.83-1.92 1.66-2.87 2.46-3.43 2.83-7.1 5.45-10.71 5.45s-7.13-2.42-11.42-6.04c-.73-.62-1.46-1.25-2.18-1.88-4.06-3.52-8.27-7.16-13.08-8.74-5.02-1.63-10.69-1.17-16.18-.72-6.08.5-11.82.96-15.18-1.48-3.44-2.51-4.77-8.18-6.18-14.19-.35-1.48-.7-2.96-1.08-4.4-.84-3.18-2.12-7.26-4.52-10.59-3.03-4.16-7.84-7.07-12.49-9.87-5.3-3.2-10.3-6.22-11.63-10.32-1.25-3.84.95-9.1 3.27-14.66 2.15-5.15 4.38-10.47 4.38-15.87 0-3.02-.7-6.34-2.2-10.44-.76-2.07-3.06-3.14-5.13-2.38s-3.14 3.06-2.38 5.13c1.17 3.19 1.72 5.63 1.72 7.68 0 3.79-1.91 8.36-3.76 12.78-2.78 6.66-5.66 13.55-3.5 20.21 2.25 6.94 8.79 10.88 15.1 14.7 4.15 2.51 8.08 4.88 10.15 7.72 1.12 1.55 2.04 3.64 2.92 6.68l-23.06 57.9c-.51 1.29-.32 2.75.5 3.86.83 1.11 2.17 1.73 3.55 1.6l33.44-2.84 22.34 25.06c.77.86 1.86 1.34 2.99 1.34.23 0 .46-.02.69-.06 1.37-.24 2.51-1.17 3.02-2.46l17.63-44.28c3.57 2.53 7.61 4.54 12.27 4.54 4.33 0 8.13-1.74 11.6-4.09l19 44.16c.55 1.27 1.72 2.17 3.09 2.38.2.03.39.04.59.04 1.17 0 2.29-.51 3.06-1.42l21.65-25.66 33.51 1.92c1.39.09 2.71-.56 3.51-1.7.8-1.13.95-2.6.4-3.88l-23.5-54.61c.79-3.06 1.8-6.28 3.4-8.47 2.08-2.86 6-5.22 10.16-7.73 6.32-3.81 12.85-7.76 15.1-14.7 2.16-6.66-.72-13.55-3.5-20.21zm-132.99 124.74-19.37-21.72c-.84-.94-2.07-1.43-3.32-1.32l-28.99 2.46 16.63-41.75c1.44 4.42 3.49 8.44 7.24 11.17 5.77 4.19 13.28 3.58 20.54 2.99 4.7-.38 9.57-.78 13.06.35 3.27 1.07 6.69 4.03 10.31 7.17.02.02.04.04.06.05l-16.16 40.59zm92.38-23.46c-1.25-.08-2.47.45-3.29 1.41l-18.76 22.24-17.3-40.2c.24-.21.49-.42.73-.63 3.62-3.15 7.05-6.12 10.31-7.18 3.5-1.13 8.36-.74 13.07-.35 7.26.59 14.77 1.21 20.54-2.99 3.4-2.47 5.4-6.02 6.82-9.96l16.92 39.32-29.05-1.67z"/><path d="m29.19 79.95c.26.05.53.08.79.08 1.87 0 3.54-1.32 3.92-3.22.04-.2.1-.4.17-.61.18-.55.44-1.11.79-1.69 1.15-1.88.56-4.35-1.32-5.5-1.88-1.16-4.35-.56-5.5 1.32-.69 1.12-1.22 2.27-1.58 3.42-.17.54-.3 1.03-.4 1.49-.43 2.17.97 4.27 3.14 4.71z"/><path d="m177.34 101.54c3.17-3.09 4.3-7.64 2.93-11.85-1.37-4.22-4.95-7.23-9.33-7.87l-20.65-3c-1.16-.17-2.16-.9-2.68-1.95l-9.23-18.71c-1.96-3.97-5.93-6.44-10.37-6.44s-8.41 2.47-10.37 6.44l-9.24 18.71c-.52 1.05-1.52 1.78-2.68 1.95l-20.65 3c-4.39.64-7.96 3.65-9.33 7.87s-.25 8.76 2.93 11.85l14.94 14.57c.84.82 1.22 2 1.02 3.15l-3.53 20.57c-.75 4.37 1.01 8.7 4.6 11.31 2.03 1.47 4.4 2.22 6.78 2.22 1.84 0 3.68-.44 5.39-1.34l18.47-9.71c1.04-.54 2.28-.54 3.31 0l18.47 9.71c3.92 2.06 8.59 1.73 12.17-.88 3.59-2.61 5.35-6.94 4.6-11.31l-3.53-20.57c-.2-1.16.18-2.33 1.02-3.15l14.94-14.57zm-20.53 8.84c-2.73 2.66-3.97 6.48-3.33 10.23l3.53 20.57c.34 1.97-.88 3.09-1.42 3.48s-1.98 1.2-3.75.27l-18.47-9.71c-3.37-1.77-7.39-1.77-10.76 0l-18.47 9.71c-1.77.93-3.21.12-3.75-.27s-1.76-1.51-1.42-3.48l3.53-20.56c.64-3.75-.6-7.58-3.32-10.23l-14.94-14.57c-1.43-1.39-1.11-3.02-.9-3.65s.9-2.14 2.87-2.42l20.65-3c3.77-.55 7.02-2.91 8.71-6.32l9.23-18.71c.88-1.79 2.53-1.99 3.19-1.99s2.31.19 3.19 1.99 9.23 18.71 9.23 18.71c1.68 3.41 4.94 5.78 8.71 6.33l20.65 3c1.98.29 2.67 1.79 2.87 2.42.21.63.53 2.26-.9 3.65l-14.94 14.56z"/></g></svg>